<?xml version="1.0" encoding="utf-8"?>
<!-- Generator: Adobe Illustrator 27.2.0, SVG Export Plug-In . SVG Version: 6.00 Build 0)  -->
<svg version="1.1" id="Layer_1" xmlns="http://www.w3.org/2000/svg" xmlns:xlink="http://www.w3.org/1999/xlink" x="0px" y="0px"
	 viewBox="0 0 512 512" style="enable-background:new 0 0 512 512;" xml:space="preserve">
<style type="text/css">
	.st0{fill:#212121;}
</style>
<g>
	<path class="st0" d="M86.42,2.56c9.19-5.29,20.93-2.13,26.22,7.06L239.75,230.4h58.09L181.76,28.78
		c-5.29-9.19-2.13-20.93,7.06-26.22c9.19-5.29,20.93-2.13,26.22,7.06L342.15,230.4h151.87c9.93,0,17.97,8.05,17.97,17.97V256
		c0,26.76-4.11,52.56-11.72,76.8H11.72C4.11,308.56,0,282.76,0,256v-7.63c0-9.93,8.05-17.97,17.97-17.97h177.47L79.36,28.78
		C74.07,19.59,77.23,7.86,86.42,2.56z M27.32,371.2C69.48,454.72,156.05,512,256,512c99.95,0,186.52-57.28,228.68-140.8H27.32z"/>
</g>
</svg>
