<?xml version="1.0" encoding="utf-8"?>
<!-- Generator: Adobe Illustrator 27.2.0, SVG Export Plug-In . SVG Version: 6.00 Build 0)  -->
<svg version="1.1" id="Layer_1" xmlns="http://www.w3.org/2000/svg" xmlns:xlink="http://www.w3.org/1999/xlink" x="0px" y="0px"
	 viewBox="0 0 512 512" style="enable-background:new 0 0 512 512;" xml:space="preserve">
<style type="text/css">
	.st0{fill:#212121;}
</style>
<g>
	<path class="st0" d="M0.02,21.94C0.02,9.82,9.84,0,21.96,0h16.33C66.1,0,82.75,18.7,92.27,36.07
		c6.35,11.58,10.94,25.02,14.53,37.18l2.95-0.12h365.64c24.29,0,41.83,23.24,35.17,46.6l-53.48,187.51
		c-9.85,34.56-41.43,58.39-77.37,58.39H205.69c-36.23,0-68-24.22-77.59-59.16l-22.25-81.07L69.03,101.11l-0.06-0.22
		c-4.56-16.61-8.83-32.13-15.18-43.73C47.61,45.9,42.7,43.89,38.29,43.89H21.96C9.84,43.89,0.02,34.06,0.02,21.94z M190.19,512
		c32.32,0,58.51-26.2,58.51-58.51c0-32.32-26.2-58.51-58.51-58.51s-58.51,26.2-58.51,58.51C131.67,485.8,157.87,512,190.19,512z
		 M394.99,512c32.32,0,58.51-26.2,58.51-58.51c0-32.32-26.2-58.51-58.51-58.51c-32.32,0-58.51,26.2-58.51,58.51
		C336.47,485.8,362.67,512,394.99,512z"/>
</g>
</svg>
