<?xml version="1.0" encoding="utf-8"?>
<!-- Generator: Adobe Illustrator 27.7.0, SVG Export Plug-In . SVG Version: 6.00 Build 0)  -->
<svg version="1.1" id="mdi-rhombus-split" xmlns="http://www.w3.org/2000/svg" xmlns:xlink="http://www.w3.org/1999/xlink" x="0px"
	 y="0px" viewBox="0 0 512 512" style="enable-background:new 0 0 512 512;" xml:space="preserve">
<g>
	<path d="M256,0.03c-12.8,0-25.59,4.86-36.09,15.1l-84.46,84.2L256,219.63L376.55,99.34l-84.46-84.2
		C281.59,4.89,268.8,0.03,256,0.03 M99.37,135.42l-84.2,84.46c-20.22,19.96-20.22,52.21,0,72.17l84.2,84.46l120.29-120.55
		L99.37,135.42 M412.63,135.42L292.34,255.97l120.29,120.55l84.2-84.46c20.22-19.96,20.22-52.21,0-72.17L412.63,135.42 M256,292.31
		L135.45,412.6l84.46,84.2c19.96,20.22,52.21,20.22,72.17,0l84.46-84.2L256,292.31z"/>
</g>
</svg>
